<?xml version="1.0" standalone="no"?><!DOCTYPE svg PUBLIC "-//W3C//DTD SVG 1.1//EN" "http://www.w3.org/Graphics/SVG/1.1/DTD/svg11.dtd"><svg t="1723088751349" class="icon" viewBox="0 0 1029 1024" version="1.1" xmlns="http://www.w3.org/2000/svg" p-id="1168" xmlns:xlink="http://www.w3.org/1999/xlink" width="200.9765625" height="200"><path d="M574.833536 158.60253H442.725752c-2.049317 0-4.098635-2.049317-2.049317-4.098635L505.742263 0h6.074762l65.065828 154.503895c2.049317 2.049317 0 4.098635-2.049317 4.098635z m-408.619255 402.544493V422.891287h-4.098635L1.536988 491.98256c-2.049317 2.049317-2.049317 4.098635 0 4.098635l160.578658 69.091273a4.391394 4.391394 0 0 0 4.098635-4.025445z m52.843113-260.263312l93.536702-93.536702c2.049317-1.976128 2.049317-4.025445 0-4.025445L153.698806 140.305053c-2.049317-2.049317-4.025445 0-2.049317 1.976128l63.0897 158.60253a2.049317 2.049317 0 1 0 4.025445 0z m272.412837-56.941748C375.610607 252.066042 267.875063 359.874777 261.72711 473.685083A232.304767 232.304767 0 0 0 278.12165 579.4445a10.100207 10.100207 0 0 0 13.832892 3.879065 9.880638 9.880638 0 0 0 2.415267-1.902937l304.909156-304.909156a10.246587 10.246587 0 0 0 0.36595-14.637982 9.587878 9.587878 0 0 0-2.415267-1.829748 268.387392 268.387392 0 0 0-105.759417-16.101779z" fill="#F7DF4A" p-id="1169"></path><path d="M589.105568 831.510542H428.45372c-2.049317 0-4.025445 2.049317-2.049317 4.098635l79.33786 187.000215a4.025445 4.025445 0 0 0 5.708813 0.365949l0.365949-0.365949 79.26467-187.000215c0-2.049317 0-4.098635-1.976127-4.098635z m248.040597-258.213994V412.71789c0-2.049317 1.976128-4.098635 4.025445-2.049317l187.073405 79.26467c1.976128 2.049317 1.976128 4.098635 0 4.098635l-187.073405 81.313987c-2.049317 0-4.025445 0-4.025445-2.049317z m-42.742906-254.11536L680.666143 205.370881c-2.049317 0 0-2.049317 0-4.098635l191.025659-75.239225c2.049317 0 4.025445 2.049317 2.049317 4.098635L798.501894 319.181188z m-469.586448 469.659638L210.933314 674.95733h-4.098635L131.741834 864.080051c0 1.976128 1.976128 6.074762 4.025445 4.025445l189.122722-75.239225c1.976128 0 1.976128-4.025445 0-4.025445z m359.801587-2.049317l113.883496-113.883497h4.025445l75.239225 189.122722c2.049317 2.049317 0 4.025445-2.049317 2.049317l-189.049532-75.239225c-2.049317 2.049317-2.049317 0-2.049317-2.049317z m2.049317-498.130513l-378.172254 380.587521a14.637982 14.637982 0 0 0 0 20.127225 276.804231 276.804231 0 0 0 227.693804 81.313987A281.781145 281.781145 0 0 0 702.623115 288.660996a12.295905 12.295905 0 0 0-15.9554 0z" fill="#F7B531" p-id="1170"></path></svg>