<svg t="1723088821976" class="icon" viewBox="0 0 1530 1024" version="1.1" xmlns="http://www.w3.org/2000/svg" p-id="1325" width="200" height="200"><path d="M1157.859336 132.140994h-107.339146c-2.744467 0-5.590581-2.846114-2.744467-5.692228L1101.343649 1.931291a5.793874 5.793874 0 0 1 8.030107 0h0.508234l50.82346 127.058648zM861.355275 244.765779l76.235189-73.490722a2.846114 2.846114 0 1 0 0-5.59058L810.531816 111.81161a5.692227 5.692227 0 0 0-5.590581 5.692228l50.82346 127.058647c0 2.947761 2.744467 2.947761 5.59058 0.203294z" fill="#F7DF4A" p-id="1326"></path><path d="M1527.752472 414.109545l-146.879797-64.952381c-2.744467-2.744467-5.590581 0-5.590581 2.846114v127.058648a5.692227 5.692227 0 0 0 5.590581 5.692227l149.72591-62.106267a14.027275 14.027275 0 0 0-2.846113-8.538341zM1335.741443 267.331395c2.846114 2.846114 8.436694 2.846114 8.436694 0l62.106267-149.624264c2.846114-2.846114-2.744467-5.692227-5.59058-5.692227l-149.624264 56.515687c-2.846114 2.744467-5.692227 5.590581-2.846114 8.436694z m-20.329384 352.918101a174.222818 174.222818 0 0 1 54.177808 20.126089l-25.41173-67.798494c-2.846114-5.692227-5.590581-5.692227-8.436694-2.846114l-22.565616 22.565616a88.534466 88.534466 0 0 1 2.744467 28.257843z" fill="#F7B531" p-id="1327"></path><path d="M1010.979539 323.745435a238.46367 238.46367 0 0 1 62.207914 8.538341L1177.578838 233.787912c2.846114-5.692227 2.846114-11.384455-2.744467-14.128922a183.777628 183.777628 0 0 0-87.111409-14.433862A217.219464 217.219464 0 0 0 904.758509 343.566584a344.379759 344.379759 0 0 1 107.237499-19.821149z" fill="#F7DF4A" p-id="1328"></path><path d="M1276.48129 481.90804l22.565615 47.977345a202.074074 202.074074 0 0 0 30.494076-90.36411 237.040614 237.040614 0 0 0-64.952381-194.755496c-5.590581-5.692227-11.282808-5.692227-14.027275 0L1138.546421 354.849392a316.426857 316.426857 0 0 1 138.443103 127.058648z" fill="#F7B531" p-id="1329"></path><path d="M254.218232 1023.991055h1010.776956A166.599299 166.599299 0 0 0 1433.322484 858.611519a179.508458 179.508458 0 0 0-1.219763-20.939265 169.343766 169.343766 0 0 0-175.035993-152.470378h-19.719502A226.367687 226.367687 0 0 0 1211.528909 518.399283a237.548848 237.548848 0 0 0-138.341456-112.929726l-62.207914-8.436694A248.526715 248.526715 0 0 0 917.870962 416.752365L248.627652 1009.862133c-5.590581 2.846114-2.744467 14.128922 5.59058 14.128922z" fill="#A1C6E6" p-id="1330"></path><path d="M550.82394 239.073552A285.221253 285.221253 0 0 0 268.448801 501.627542v50.823459h-50.82346a155.723079 155.723079 0 0 0-50.823459 5.692227h-2.846113C82.129999 575.118264 3.048697 659.790147 0.100936 744.46203a197.601609 197.601609 0 0 0 138.443103 194.857142h5.692227a19.617855 19.617855 0 0 0 16.873389-5.692227L779.529506 386.25829a17.076682 17.076682 0 0 0 4.26917-23.582085 6.60705 6.60705 0 0 0-1.524703-1.829645 279.325732 279.325732 0 0 0-231.450033-121.773008z" fill="#C3D6E6" p-id="1331"></path></svg>