<svg t="1723088937083" class="icon" viewBox="0 0 1874 1024" version="1.1" xmlns="http://www.w3.org/2000/svg" p-id="1647" width="200" height="200"><path d="M1643.609304 582.500086h-27.832348a308.901617 308.901617 0 0 0-34.57202-221.90993 295.047848 295.047848 0 0 0-180.348621-142.157148 305.531781 305.531781 0 0 0-201.06687 10.359125l-877.155785 773.814152a10.85836 10.85836 0 0 0-6.86448 13.85377 10.983169 10.983169 0 0 0 13.853769 6.989289h1320.850835a222.034738 222.034738 0 0 0 222.908399-220.91146c0-7.363715 0-14.602622-0.998469-21.841528a224.655722 224.655722 0 0 0-228.77441-197.572227z" fill="#A1C6E6" p-id="1648"></path><path d="M721.397566 0.017723a374.426203 374.426203 0 0 0-370.931558 339.729375v65.899011h-41.686117a427.96915 427.96915 0 0 0-93.606551 6.989289C104.218375 433.353648 0.127891 544.308613 0.127891 655.263578a256.606758 256.606758 0 0 0 180.348621 253.112113 27.707539 27.707539 0 0 0 27.832347-6.989289L1016.070988 187.230824a24.961747 24.961747 0 0 0 7.488524-31.202183A363.692652 363.692652 0 0 0 721.397566 0.017723z" fill="#C3D6E6" p-id="1649"></path></svg>