<svg t="1723088944489" class="icon" viewBox="0 0 1102 1024" version="1.1" xmlns="http://www.w3.org/2000/svg" p-id="1804" width="200" height="200"><path d="M365.679841 755.674365a397.359808 397.359808 0 0 0 414.3845-379.545312v-0.702049A392.445465 392.445465 0 0 0 555.759644 0.006231h31.679967a511.969329 511.969329 0 1 1-494.769126 633.774853 399.553712 399.553712 0 0 0 273.009356 121.893281z" fill="#F7B531" p-id="1805"></path><path d="M270.552184 582.619254a114.609521 114.609521 0 0 0-114.082984-114.609521 114.082984 114.082984 0 0 0 114.082984-114.082984 114.609521 114.609521 0 0 0 114.609521 114.082984 114.609521 114.609521 0 0 0-114.609521 114.609521zM75.558038 226.680344q75.558038 0 75.558038 75.645794v-1.053074q0 75.558038-75.558038 75.645794Q0 377.357639 0 301.273064v1.053074q0-75.73355 75.558038-75.645794z" fill="#F7DF4A" p-id="1806"></path></svg>