<svg t="1723089006162" class="icon" viewBox="0 0 1270 1024" version="1.1" xmlns="http://www.w3.org/2000/svg" p-id="2119" width="200" height="200"><path d="M1114.855459 394.634376h-19.202153a188.83552 188.83552 0 0 0-21.527077-148.278507 205.62664 205.62664 0 0 0-260.649848-88.51934L220.276246 681.719475a7.577531 7.577531 0 0 0-4.908173 9.558022 7.491423 7.491423 0 0 0 9.558022 4.735957h897.076354a150.689539 150.689539 0 0 0 148.967373-152.325597c0-4.219307 0-8.610831-0.688867-12.657921a153.014464 153.014464 0 0 0-155.425496-136.39556z" fill="#A1C6E6" p-id="2120"></path><path d="M488.159193 0a251.177935 251.177935 0 0 0-248.766902 231.975782l-4.822066 45.465187h-23.852001a196.240834 196.240834 0 0 0-64.581231 4.822065C71.911631 298.968046 0.097302 370.782375 0.097302 447.246552a174.455432 174.455432 0 0 0 122.015473 172.216617 19.116044 19.116044 0 0 0 19.116044-4.735957l550.232089-483.153717c4.735957-7.233098 7.14699-16.79112 2.411033-21.527077A248.85301 248.85301 0 0 0 488.159193 0z" fill="#C3D6E6" p-id="2121"></path><path d="M607.763633 846.702994h43.054154v177.297006h-43.054154zM904.234538 827.586949h43.054154v90.155399h-43.054154z" fill="#A1C6E6" p-id="2122"></path><path d="M402.050885 751.036663h43.054154v177.297007h-43.054154z m-172.216617 0h43.054154v85.161117h-43.054154z" fill="#C3D6E6" p-id="2123"></path><path d="M779.980249 784.532795h43.054154v177.210898h-43.054154z" fill="#A1C6E6" p-id="2124"></path></svg>