<svg t="1723089014957" class="icon" viewBox="0 0 1163 1024" version="1.1" xmlns="http://www.w3.org/2000/svg" p-id="2279" width="200" height="200"><path d="M1019.505221 362.652983h-16.420782a188.838999 188.838999 0 0 0-20.525978-136.867223 184.323284 184.323284 0 0 0-113.960231-88.918537 173.239256 173.239256 0 0 0-123.15587 6.814624L200.765003 624.89288A6.814625 6.814625 0 0 0 205.280718 636.305324h821.039128a136.785119 136.785119 0 0 0 137.524054-136.128287 119.461193 119.461193 0 0 0-0.656831-14.368185 141.382938 141.382938 0 0 0-143.681848-123.155869z" fill="#A1C6E6" p-id="2280"></path><path d="M447.076742 0a232.682489 232.682489 0 0 0-230.38358 212.074407v41.051956h-22.824887a232.764593 232.764593 0 0 0-56.980116 4.597819h-2.298909C66.19669 273.652341 2.319846 339.828095 0.020936 410.519564a162.073124 162.073124 0 0 0 114.042335 157.393201 16.420783 16.420783 0 0 0 16.010263-4.59782L632.221065 118.55805a13.711353 13.711353 0 0 0 3.448364-18.966004 7.389352 7.389352 0 0 0-1.231559-1.559974A228.002566 228.002566 0 0 0 447.076742 0z" fill="#C3D6E6" p-id="2281"></path><path d="M827.956793 757.162284h38.753047v145.488133h-38.753047z m79.805003-84.402823h38.753047V792.302758h-38.753047z" fill="#A1C6E6" p-id="2282"></path><path d="M380.900988 688.769724h38.753047v192.944195h-38.753047z m-182.434894 0h38.753046v114.945478h-38.753046z m79.805003 63.876844h38.753047V944.194997h-38.753047z" fill="#C3D6E6" p-id="2283"></path><path d="M714.324978 741.234124h38.753046v271.353432H714.324978z" fill="#A1C6E6" p-id="2284"></path><path d="M520.06712 691.068634H656.852239l-75.207184 139.084028h88.918537l-159.69211 193.847338 29.721616-134.568313h-54.76331z" fill="#F7B531" p-id="2285"></path></svg>