<svg t="1723089112557" class="icon" viewBox="0 0 1311 1024" version="1.1" xmlns="http://www.w3.org/2000/svg" p-id="2760" width="200" height="200"><path d="M1150.298718 408.462222h-19.429743a189.571282 189.571282 0 0 0-24.33094-153.162393A211.539145 211.539145 0 0 0 980.419744 153.162393a214.164786 214.164786 0 0 0-141.084444 9.714872l-612.649573 539.744273a7.70188 7.70188 0 0 0 4.901197 14.528547h925.976068a155.52547 155.52547 0 0 0 153.862564-157.538461c0-4.288547 0-8.752137-0.700171-12.865641a157.538462 157.538462 0 0 0-160.426667-138.546325z" fill="#A1C6E6" p-id="2761"></path><path d="M506.053932 0a262.564103 262.564103 0 0 0-260.113504 238.233162v46.211282h-29.232137a294.334359 294.334359 0 0 0-65.641026 2.450599C73.26077 303.874188 2.806069 379.230085 0.180428 457.036581a179.943932 179.943932 0 0 0 126.643419 179.943932 19.517265 19.517265 0 0 0 19.429743-4.901197l566.438291-498.346666a19.604786 19.604786 0 0 0 2.450598-24.330941A255.38735 255.38735 0 0 0 506.053932 0z" fill="#C3D6E6" p-id="2762"></path><path d="M717.855641 841.167863h43.760684V1024h-43.760684z" fill="#A1C6E6" p-id="2763"></path><path d="M416.081966 775.526838h43.760684v124.017777h-43.760684z" fill="#C3D6E6" p-id="2764"></path><path d="M894.998889 812.023248h43.760684v182.569573h-43.760684z" fill="#A1C6E6" p-id="2765"></path></svg>