<?xml version="1.0" standalone="no"?><!DOCTYPE svg PUBLIC "-//W3C//DTD SVG 1.1//EN" "http://www.w3.org/Graphics/SVG/1.1/DTD/svg11.dtd"><svg t="1722568952601" class="icon" viewBox="0 0 1024 1024" version="1.1" xmlns="http://www.w3.org/2000/svg" p-id="6671" xmlns:xlink="http://www.w3.org/1999/xlink" width="200" height="200"><path d="M514 114.4c-220 0-398.8 178.9-398.8 398.8S294 912 514 912s398.8-178.9 398.8-398.8S734 114.4 514 114.4z m0 754.9c-196.4 0-356.1-159.8-356.1-356.1S317.6 157.1 514 157.1s356.1 159.8 356.1 356.1S710.4 869.3 514 869.3z" p-id="6672"></path><path d="M751.4 491.8h-216v-216c0-11.8-9.6-21.4-21.4-21.4s-21.4 9.6-21.4 21.4v216h-216c-11.8 0-21.4 9.6-21.4 21.4 0 11.8 9.6 21.4 21.4 21.4h216v216c0 11.8 9.6 21.4 21.4 21.4s21.4-9.6 21.4-21.4v-216h216c11.8 0 21.4-9.6 21.4-21.4-0.1-11.8-9.6-21.4-21.4-21.4z" p-id="6673"></path></svg>