<?xml version="1.0" standalone="no"?><!DOCTYPE svg PUBLIC "-//W3C//DTD SVG 1.1//EN" "http://www.w3.org/Graphics/SVG/1.1/DTD/svg11.dtd"><svg t="1722510404575" class="icon" viewBox="0 0 1024 1024" version="1.1" xmlns="http://www.w3.org/2000/svg" p-id="5509" xmlns:xlink="http://www.w3.org/1999/xlink" width="200" height="200"><path d="M160 896H96V128a64 64 0 0 1 64-64h384a64 64 0 0 1 64 64v768h-64V128H160v768z m704-416h64v416h-64zM80 960a32 32 0 0 1 0-64h848a32 32 0 0 1 0 64H80z" p-id="5510" fill="#ffffff"></path><path d="M971.648 482.176a32 32 0 0 1-23.296 59.648L564.16 391.84a32 32 0 0 1 23.264-59.616L971.68 482.176z m-267.264 103.84a32 32 0 1 1 0 64h-128.64a32 32 0 0 1 0-64h128.64z m0 128a32 32 0 1 1 0 64h-128.64a32 32 0 0 1 0-64h128.64zM320 576a32 32 0 0 1-64 0v-64a32 32 0 0 1 64 0v64z m0-224a32 32 0 0 1-64 0v-64a32 32 0 0 1 64 0v64z m128 0a32 32 0 1 1-64 0v-64a32 32 0 1 1 64 0v64z m0 224a32 32 0 0 1-64 0v-64a32 32 0 0 1 64 0v64zM320 928h-64V714.016h201.6V928h-64V778.016H320z" p-id="5511" fill="#ffffff"></path></svg>