<?xml version="1.0" standalone="no"?><!DOCTYPE svg PUBLIC "-//W3C//DTD SVG 1.1//EN" "http://www.w3.org/Graphics/SVG/1.1/DTD/svg11.dtd"><svg t="1723022207425" class="icon" viewBox="0 0 1024 1024" version="1.1" xmlns="http://www.w3.org/2000/svg" p-id="1490" xmlns:xlink="http://www.w3.org/1999/xlink" width="200" height="200"><path d="M510.478198 988.506066h-1.153553c-61.138302-0.266205-120.501906-19.876603-171.524437-56.790295-53.862045-38.865858-97.07591-96.454766-124.938648-166.377816-27.15286-68.325823-28.661352-149.518198-4.259272-241.270017 18.989255-71.609012 53.77331-149.961872 103.287348-233.017678 83.67695-140.20104 179.510572-244.109532 183.592374-248.457539l16.238475-17.480763 16.238475 17.480763c4.081802 4.348007 100.447834 108.611438 184.390988 249.078683 49.691508 83.144541 84.475563 161.586135 103.376083 233.106412 24.22461 91.75182 22.449913 172.67799-5.235355 240.648874-28.572617 70.189255-72.67383 127.955633-127.423224 166.910225-51.732409 36.736222-111.362218 56.169151-172.589254 56.169151z m1.242287-897.37539c-30.968458 35.760139-100.802773 120.413172-162.207279 223.34558-73.383709 123.163951-149.518198 298.503986-95.389948 434.445754 48.44922 121.744194 143.927903 194.772964 255.378856 195.216638h0.976084c110.65234 0 209.769151-74.803466 258.928249-195.394107 55.015598-135.054419-21.207626-310.394454-94.768804-433.647141-61.581976-103.198614-131.859965-188.206586-162.917158-223.966724z" fill="#2381BF" p-id="1491"></path><path d="M501.427244 693.462738c-43.657539 0-44.811092 38.155979-90.775736 38.15598s-41.882842-38.155979-86.782669-38.15598-90.420797 63.622877-90.420797 63.622877c111.273484 279.780936 443.230503 278.183709 556.456152 0 10.381976-25.555633 16.593414-52.353553 19.166725-79.861352 0 0-21.562565 54.394454-64.77643 54.394455s-40.37435-38.155979-82.168458-38.15598-33.896707 38.155979-78.530329 38.15598-38.510919-38.155979-82.168458-38.15598zM553.425858 608.011092h-95.922357V243.133449h95.922357v26.62045h-69.301907v32.920624h38.688389v26.620451h-38.688389v25.378163h38.688389v26.620451h-38.688389v25.378162h69.301907v26.620451h-69.301907V477.393414h38.688389v26.620451h-38.688389v25.378163h38.688389v26.62045h-38.688389v25.378163h69.301907z" fill="#2381BF" p-id="1492"></path></svg>