<?xml version="1.0" standalone="no"?><!DOCTYPE svg PUBLIC "-//W3C//DTD SVG 1.1//EN" "http://www.w3.org/Graphics/SVG/1.1/DTD/svg11.dtd"><svg t="1723037429450" class="icon" viewBox="0 0 1024 1024" version="1.1" xmlns="http://www.w3.org/2000/svg" p-id="15015" xmlns:xlink="http://www.w3.org/1999/xlink" width="200" height="200"><path d="M952.832 459.776c0-61.952-46.592-113.664-107.008-122.88l-0.512-60.928c0-59.392-32.256-108.032-92.672-108.032h-405.504c-60.928 0-94.72 48.64-94.72 108.032v60.416c-62.464 7.68-110.592 59.904-110.592 123.392 0 62.464 46.592 114.176 107.52 122.88l-0.512 15.872v161.792c0 35.84 26.624 66.048 60.928 72.192v15.872c0 10.24 8.192 18.432 18.944 18.432 10.24 0 18.944-8.192 18.944-18.432v-14.848h399.36v14.848c0 10.24 8.192 18.432 18.944 18.432 10.24 0 18.944-8.192 18.944-18.432v-15.872c34.816-6.144 60.928-36.352 60.928-72.192V599.04v-0.512l-0.512-15.872c60.416-9.216 107.52-60.928 107.52-122.88z" fill="#FFC965" p-id="15016"></path><path d="M1003.52 417.28c0-74.752-56.32-136.704-129.536-147.968l-0.512-73.216c0-71.68-38.912-130.048-112.64-130.048h-491.52c-73.728 0-114.688 58.368-114.688 130.048v72.704c-75.264 9.216-134.144 72.192-134.144 148.48 0 74.752 56.832 137.216 130.56 147.968l-0.512 18.944v195.072c0 43.008 31.744 79.36 74.24 87.04v19.456c0 12.288 10.24 22.016 22.528 22.016s22.528-9.728 22.528-22.016v-17.92h483.84v17.92c0 12.288 10.24 22.016 22.528 22.016s22.528-9.728 22.528-22.016v-19.456c41.984-7.68 74.24-43.52 74.24-87.04v-195.072l-0.512-18.944c74.24-10.752 131.072-72.704 131.072-147.968z m-793.6-216.064c0-42.496 21.504-81.92 65.536-81.92h477.696c44.032 0 64.512 39.424 64.512 81.92v71.168c-64.512 9.728-115.712 59.904-125.44 122.88v207.872h-361.984v-208.384c-9.216-61.952-58.368-111.104-120.832-122.368v-71.168h0.512z m640 321.536c-6.144 0-11.776 2.56-16.384 6.656-4.096 4.096-6.656 10.24-6.656 15.872l1.024 39.424v194.048c0 24.576-20.48 44.032-45.568 44.032H240.64c-25.088 0-45.568-19.968-45.568-44.032v-194.048l1.024-39.424c0-6.144-2.048-11.776-6.656-15.872-4.096-4.096-10.24-6.656-16.384-6.656-59.392 0-108.032-47.104-108.032-105.472s48.64-105.472 108.032-105.472 107.52 46.592 108.032 104.448l-1.536 18.944v196.608c0 12.288 10.24 22.016 22.528 22.016h417.28c12.288 0 22.528-9.728 22.528-22.016v-195.072-1.536l-1.536-18.944c0.512-57.856 48.64-104.448 108.032-104.448s108.032 47.104 108.032 105.472c1.536 58.368-47.104 105.472-106.496 105.472z" fill="#1559E0" p-id="15017"></path></svg>