<?xml version="1.0" standalone="no"?><!DOCTYPE svg PUBLIC "-//W3C//DTD SVG 1.1//EN" "http://www.w3.org/Graphics/SVG/1.1/DTD/svg11.dtd"><svg t="1723036726636" class="icon" viewBox="0 0 1024 1024" version="1.1" xmlns="http://www.w3.org/2000/svg" p-id="12956" xmlns:xlink="http://www.w3.org/1999/xlink" width="200" height="200"><path d="M130.543223 709.567128l139.885238-560.393134c23.243192-3.174368 114.298554-16.787933 214.450931 4.282201 153.094019 32.297597 241.443712 104.96719 279.195257 243.787205 0 0 1.874795 6.135691 2.876105 11.12094 0.980006 4.94264 1.107833 10.971809 1.23566 15.040965v133.195631H1022.370207v-133.195631c6.774826-219.137917-127.05994-202.818683-127.05994-202.818683s-68.770873-8.351358-105.201539 67.492604c-17.320545-25.224508-54.305128-71.56176-115.193343-112.658109-80.360512-54.241215-233.582357-107.43851-429.775345-54.390346L103.870009 709.567128h26.673214z" fill="#EA6000" p-id="12957"></path><path d="M866.187038 192.166441a95.742349 95.742349 0 1 0-0.063913-191.463393 95.742349 95.742349 0 0 0 0.063913 191.463393z" fill="#EA6000" p-id="12958"></path><path d="M1.395444 1023.318257v-342.78914c52.17468 92.248414 104.15762 77.953105 150.217913 25.948861 0 0 69.750879-106.692853 145.765276-2.918715 53.474254 73.053074 100.876729 51.940331 137.158265 5.79482 0 0 71.646978-109.590263 144.550921-12.207469 53.112077 71.029148 98.192365 62.805617 136.433912 17.917071 0 0 75.481785-112.381151 151.410964-17.256632 55.604702 69.559139 105.137626 57.649932 152.241839-23.09406v348.583959H1.395444v0.021305z" fill="#009FE8" p-id="12959"></path></svg>