<?xml version="1.0" standalone="no"?><!DOCTYPE svg PUBLIC "-//W3C//DTD SVG 1.1//EN" "http://www.w3.org/Graphics/SVG/1.1/DTD/svg11.dtd"><svg t="1723037487890" class="icon" viewBox="0 0 1024 1024" version="1.1" xmlns="http://www.w3.org/2000/svg" p-id="16083" xmlns:xlink="http://www.w3.org/1999/xlink" width="200" height="200"><path d="M51.6096 512c0 253.952 206.2336 459.9808 460.3904 459.9808 254.3616 0 460.3904-206.0288 460.3904-459.9808S766.1568 52.0192 512 52.0192C257.6384 52.0192 51.6096 258.048 51.6096 512z m0 0" fill="#FEC43C" p-id="16084"></path><path d="M963.1744 419.0208C919.9616 209.3056 734.8224 52.0192 512 52.0192 257.8432 52.0192 51.6096 258.048 51.6096 512c0 111.2064 39.5264 212.5824 105.0624 291.6352 80.6912 44.4416 171.2128 67.584 263.3728 67.1744 270.5408 0 495.2064-194.9696 543.1296-451.7888z m0 0" fill="#FFD73A" p-id="16085"></path><path d="M842.1376 342.8352c-26.0096 6.9632-53.6576 3.4816-77.0048-10.0352-23.3472-13.5168-40.3456-35.6352-47.3088-61.6448-2.6624-10.0352 2.6624-20.2752 12.9024-22.1184 10.0352-1.8432 20.2752 2.6624 22.1184 12.9024 4.5056 16.384 15.36 30.5152 30.3104 38.912 14.9504 8.3968 32.5632 10.6496 48.9472 6.144 10.0352-2.6624 20.2752 2.6624 22.1184 12.9024 1.8432 4.7104 1.4336 9.8304-0.8192 14.1312-2.4576 4.3008-6.3488 7.5776-11.264 8.8064zM206.6432 342.8352c26.0096 6.9632 53.6576 3.4816 77.0048-10.0352 23.3472-13.5168 40.3456-35.6352 47.3088-61.6448 2.6624-10.0352-2.6624-20.2752-12.9024-22.1184-10.0352-2.6624-20.2752 2.6624-22.1184 12.9024-4.5056 16.384-15.36 30.5152-30.3104 38.912-14.9504 8.3968-32.5632 10.6496-48.9472 6.144-10.0352-2.6624-20.2752 2.6624-22.1184 12.9024-1.8432 4.7104-1.4336 9.8304 0.8192 14.1312 2.4576 4.3008 6.5536 7.5776 11.264 8.8064z" fill="#E8AC27" p-id="16086"></path><path d="M745.0624 857.9072c-166.7072 26.624-300.2368 26.624-466.944 0-51.2-7.9872-89.088-52.0192-89.2928-104.0384v-154.624c0-65.3312 57.9584-114.8928 122.4704-104.0384 144.5888 22.9376 255.1808 22.9376 398.7456 0 66.3552-11.0592 124.3136 38.7072 124.3136 104.0384v153.6c0 52.6336-37.888 96.6656-89.2928 105.0624z m0 0" fill="#FEFEFE" p-id="16087"></path><path d="M724.7872 493.568c-1.024 79.0528-21.0944 265.8304-174.08 383.5904 62.6688-1.8432 125.3376-8.192 194.3552-19.2512 51.2-7.9872 89.088-52.0192 89.2928-104.0384v-154.624c0-60.6208-50.7904-107.52-109.568-105.6768z m0 0" fill="#F9F8F7" p-id="16088"></path><path d="M208.0768 608.6656c7.5776 0.2048 14.5408-3.6864 18.432-10.0352 7.168-10.4448 4.7104-24.7808-5.5296-32.1536l-156.4672-110.3872c-2.6624-2.048-5.9392-3.2768-9.216-3.6864-1.8432 16.5888-3.6864 33.9968-3.6864 50.5856L194.3552 604.16c4.5056 3.4816 9.216 4.5056 13.7216 4.5056z m0 0" fill="#FEFEFE" p-id="16089"></path><path d="M803.0208 567.296c-7.9872 5.9392-11.4688 16.1792-8.6016 25.8048 2.8672 9.6256 11.4688 16.1792 21.504 16.5888 4.7104 0.2048 9.4208-1.4336 12.9024-4.5056l142.7456-101.1712c0-17.408-1.8432-33.9968-3.6864-50.5856-3.2768 0.6144-6.3488 1.8432-9.216 3.6864l-155.648 110.1824z m0 0" fill="#F9F8F7" p-id="16090"></path><path d="M226.5088 756.736c-7.3728-10.24-21.7088-12.6976-32.1536-5.5296l-51.6096 36.864c9.216 11.8784 19.2512 23.9616 29.4912 35.84l48.7424-33.9968c11.0592-9.216 12.9024-23.1424 5.5296-33.1776z m0 0" fill="#FEFEFE" p-id="16091"></path><path d="M828.8256 751.2064c-10.4448-7.168-24.7808-4.7104-32.1536 5.5296-7.168 10.4448-4.7104 24.7808 5.5296 32.1536l48.7424 33.9968c10.0352-11.0592 20.2752-22.9376 29.4912-35.84l-51.6096-35.84z m0 0" fill="#F9F8F7" p-id="16092"></path><path d="M353.4848 392.3968m-79.2576 0a79.2576 79.2576 0 1 0 158.5152 0 79.2576 79.2576 0 1 0-158.5152 0Z" fill="#873A18" p-id="16093"></path><path d="M683.2128 392.3968m-79.2576 0a79.2576 79.2576 0 1 0 158.5152 0 79.2576 79.2576 0 1 0-158.5152 0Z" fill="#873A18" p-id="16094"></path></svg>