<?xml version="1.0" standalone="no"?><!DOCTYPE svg PUBLIC "-//W3C//DTD SVG 1.1//EN" "http://www.w3.org/Graphics/SVG/1.1/DTD/svg11.dtd"><svg t="1723036625553" class="icon" viewBox="0 0 1024 1024" version="1.1" xmlns="http://www.w3.org/2000/svg" p-id="9847" xmlns:xlink="http://www.w3.org/1999/xlink" width="200" height="200"><path d="M115.962644 313.819582a42.678092 42.678092 0 0 1-27.618008-10.10718c-18.080669-15.261456-20.364318-42.29677-5.098577-60.37744a4095.400167 4095.400167 0 0 0 46.028585-55.51451c14.944402-18.34631 41.932586-21.10554 60.278896-6.169707 18.34631 14.940117 21.109824 41.928301 6.169707 60.278895a4146.000335 4146.000335 0 0 1-47.001172 56.6799 42.74236 42.74236 0 0 1-32.759431 15.210042z" fill="#0099BF" p-id="9848"></path><path d="M329.08318 183.484519a42.686661 42.686661 0 0 1-27.56231-10.06005c-18.106377-15.235749-20.437155-42.262494-5.201406-60.368871A3811.786444 3811.786444 0 0 0 355.522946 40.908586c14.78159-18.474845 41.744067-21.478293 60.223196-6.692419 18.474845 14.78159 21.474008 41.744067 6.692419 60.223197a3880.56154 3880.56154 0 0 1-60.544536 73.783699 42.776636 42.776636 0 0 1-32.810845 15.261456z" fill="#6ECAE0" p-id="9849"></path><path d="M896.357757 313.819582a42.746644 42.746644 0 0 1-32.759431-15.205758 4203.815632 4203.815632 0 0 1-46.996887-56.679899c-14.940117-18.350594-12.180887-45.338778 6.165423-60.278896 18.354879-14.940117 45.334494-12.176603 60.274611 6.169707a4095.768636 4095.768636 0 0 0 46.03287 55.514511c15.261456 18.080669 12.977808 45.111699-5.102862 60.377439a42.673808 42.673808 0 0 1-27.613724 10.102896z" fill="#0099BF" p-id="9850"></path><path d="M683.237222 183.484519a42.74236 42.74236 0 0 1-32.802276-15.257172 3864.901623 3864.901623 0 0 1-60.553105-73.787983c-14.78159-18.474845-11.786711-45.437322 6.692418-60.223197 18.47913-14.790159 45.437322-11.790996 60.223197 6.688134a3798.19595 3798.19595 0 0 0 59.203481 72.147013c15.235749 18.106377 12.909255 45.133121-5.197121 60.36887a42.669523 42.669523 0 0 1-27.566594 10.064335z" fill="#6ECAE0" p-id="9851"></path><path d="M203.538209 820.682444c-29.096167 2.724954-50.638728 31.512636-47.90092 63.642242l5.694125 68.038159c2.742092 32.146745 27.999331 55.990092 56.148619 53.367967 17.090946-1.589556 34.186176-3.110561 51.289975-4.533021 28.166427-2.343632 49.717556-30.342962 47.879498-62.562544l-4.00174-68.183833c-1.838059-32.215297-27.176703-56.868418-56.285724-54.443381-17.613657 1.478159-35.223029 3.029155-52.823833 4.674411zM783.936268 815.571013c-29.396084-2.600703-55.073205 22.172385-57.061222 54.687598l-4.31451 68.822226c-1.983732 32.523782 19.657372 60.900151 48.102292 63.415163 17.262326 1.521004 34.520368 3.136268 51.769841 4.837222 28.419213 2.797791 54.014929-21.169808 56.919833-53.616469 2.013724-22.8879 4.018879-45.775799 6.019749-68.667983 2.904904-32.416669-18.740485-61.607096-48.110862-64.499147-17.772184-1.756653-35.544368-3.410477-53.325121-4.97861z" p-id="9852"></path><path d="M838.880937 594.215632a129.82949 129.82949 0 0 1 30.707147 16.731046c37.502393 27.553741 60.930142 60.895866 52.005489 155.922209-10.796987 114.015331-43.800636 132.040301-112.138711 126.024837a3464.984636 3464.984636 0 0 0-577.103264-1.491013c-68.359498 5.539883-118.659749-6.649573-129.919464-124.533824-9.653021-102.918427 14.524519-128.377038 52.009774-155.926494a129.546711 129.546711 0 0 1 30.660017-16.726761" fill="#FF7F88" p-id="9853"></path><path d="M807.398293 922.534025a3442.011046 3442.011046 0 0 0-573.110092-1.478159c-70.60887 5.535598-144.324017-5.20569-159.324117-150.922176-11.752435-116.894527 19.72164-151.453456 63.145238-183.403113a157.396084 157.396084 0 0 1 37.382427-20.428585c14.995816-5.715548 31.452653 2.287933 36.632636 17.75933 5.184268 15.467113-2.7121 32.463799-17.502259 38.085088a101.633071 101.633071 0 0 0-24.001875 13.076352c-28.487766 20.882745-48.762109 36.311297-40.702929 128.582694 3.96318 45.647264 14.327431 74.0879 31.43123 87.134259 13.894695 10.5999 34.490377 13.633339 69.070728 10.809841a3489.34641 3489.34641 0 0 1 581.096435 1.499582c49.55046 4.331649 73.64231 2.613556 82.588385-99.439397 7.48077-85.476151-12.879264-108.201238-40.694359-128.57841a101.388854 101.388854 0 0 0-24.04472-13.084921c-14.78159-5.617004-22.673674-22.61369-17.49369-38.085088 5.175699-15.467113 21.63682-23.462025 36.624066-17.763615a157.614594 157.614594 0 0 1 37.433841 20.437155c46.020017 33.87769 73.659448 78.698042 63.132385 183.403113-12.266577 120.849138-50.561607 160.536636-141.66333 152.39605z" fill="#FF7F88" p-id="9854"></path><path d="M146.014259 574.931013c-20.158661 1.988017-40.810042 4.083146-61.144368 6.199698-15.80559 1.64954-29.811682-10.141456-31.281272-26.482611-1.461021-16.229757 10.19287-30.865674 26.088435-32.690878l0.308486-0.038561a12943.865573 12943.865573 0 0 1 129.024-12.737874c16.028385-1.580987 30.017339 10.629891 31.182728 27.001037 1.15682 16.366862-10.724151 30.737138-26.53831 32.232435-20.977004 1.992301-43.967732 4.177406-67.639699 6.516754zM882.454494 575.372318c-24.893054-2.485021-45.968603-4.811515-65.698812-7.373657-15.75846-2.043715-27.189556-16.812452-25.501456-33.123615 1.696669-16.315448 16.088368-28.020753 32.069623-25.891347 27.999331 3.654695 59.053523 6.782393 100.681908 10.732719l0.471297 0.051415c11.868117 1.33677 19.811615 2.257941 19.828754 2.257941 16.041238 1.850912 27.703699 16.692485 26.071297 33.003649-1.645255 16.324017-15.767029 27.96077-31.555482 26.144133 0 0-7.79354-0.904033-19.477422-2.21938-13.256301-1.268218-25.480033-2.442176-36.889707-3.581858z" fill="#FF7F88" p-id="9855"></path><path d="M232.120234 668.629155c41.49128-2.999163 76.602912 30.925657 78.398126 74.889104 1.795213 44.002008-29.181858 81.311598-69.156419 84.212218-39.974561 2.862059-75.030494-29.691715-78.338142-73.569473-3.307649-43.869188 27.609439-82.54554 69.096435-85.531849zM797.736703 668.93764c41.486996 3.033439 72.369808 41.748351 69.015029 85.600402-3.33764 43.882042-38.414996 76.397255-78.393841 73.479498-39.974561-2.93918-70.925925-40.278762-69.087866-84.276486 1.825205-43.963448 36.975397-77.845423 78.466678-74.803414z" fill="#FFFFFF" opacity=".7" p-id="9856"></path><path d="M204.485088 587.621757c13.466243-96.273138 1.726661-207.327866 83.492418-271.942694 35.223029-25.942762 100.317724-28.701992 151.436318-29.511766a3897.044084 3897.044084 0 0 1 117.271565-0.415598c9.387381 0.128536 18.61195 0.278494 27.626578 0.488435 43.299347 0.616971 100.26631 2.814929 131.55615 28.337807 82.048536 64.182092 78.608067 179.782695 107.147247 273.309456a3711.323046 3711.323046 0 0 0-618.534561-0.291347" fill="#64C1D6" p-id="9857"></path><path d="M206.498812 617.266343a27.223833 27.223833 0 0 1-5.981189-0.154243c-14.310293-1.940887-24.738812-14.635916-24.687397-29.366092 0.004285-1.589556 0.128536-3.15769 0.368469-4.695832 2.566427-19.991565 4.096-40.480134 5.749824-62.159799 6.195414-79.156485 13.003515-169.636954 87.245657-228.326293l0.779782-0.591264c42.750929-31.572619 112.901356-34.63605 169.002845-35.535799a3960.870561 3960.870561 0 0 1 124.606661-0.325624c7.219414 0.111397 14.344569 0.239933 21.33262 0.402745 46.409908 0.638393 110.50631 3.037724 149.911029 35.060218 66.945607 52.519632 82.5841 130.857774 97.28 206.111063 5.591297 28.873372 10.758427 56.157188 18.303464 81.705774 2.780653 9.438795 0.89118 19.631665-5.004318 27.245255s-15.012954 11.683883-24.391765 10.891247a3687.749623 3687.749623 0 0 0-613.260318-0.398461 15.398561 15.398561 0 0 1-1.255364 0.137105z m30.570042-62.031264a3734.8879 3734.8879 0 0 1 547.741456-0.154242c-3.547582-15.432837-6.696703-30.959933-9.837256-46.208536-14.014661-67.935331-27.759397-132.357356-77.605489-170.995146a18.976134 18.976134 0 0 1-0.552703-0.432737c-23.526293-19.156084-77.356987-21.006996-112.888502-21.469723a3261.731347 3261.731347 0 0 0-27.583732-0.49272 3910.193272 3910.193272 0 0 0-116.487498 0.415598c-44.601841 0.694092-105.759063 3.153406-133.672703 23.303498-53.449372 42.198226-59.760469 112.237255-66.367197 185.986678-0.874042 9.901523-1.756653 19.961573-2.746376 30.04733z" fill="#FF7F88" p-id="9858"></path><path d="M696.797724 552.750059c-10.514209-0.522711-18.719063-9.768703-18.329172-20.70708 1.482444-38.205054-27.879364-70.754544-65.463163-71.748552-37.579515-1.015431-68.299515 29.923079-68.466611 68.16241-0.08569 10.95123-8.680435 19.738778-19.194644 19.704502-10.518494-0.038561-19.05754-8.890377-19.078962-19.841607-0.334192-60.081808 47.943766-109.272368 107.601405-107.65282 59.661925 1.576703 105.776201 53.290845 102.854159 113.286962-0.497004 10.929808-9.417372 19.318895-19.923012 18.796185z" fill="#448291" p-id="9859"></path></svg>