<?xml version="1.0" standalone="no"?><!DOCTYPE svg PUBLIC "-//W3C//DTD SVG 1.1//EN" "http://www.w3.org/Graphics/SVG/1.1/DTD/svg11.dtd"><svg t="1723036524078" class="icon" viewBox="0 0 1024 1024" version="1.1" xmlns="http://www.w3.org/2000/svg" p-id="8652" xmlns:xlink="http://www.w3.org/1999/xlink" width="200" height="200"><path d="M588.882708 931.895138l191.56283-51.329969c5.905723-1.583262 7.8848-8.965908 3.56037-13.288369l-140.232862-140.232862c-4.324431-4.324431-11.707077-2.345354-13.288369 3.56037l-51.329969 191.56283c-1.583262 5.905723 3.820308 11.309292 9.728 9.728z" fill="#F09595" p-id="8653"></path><path d="M586.769723 911.547077a12.735015 12.735015 0 0 1-9.042708-3.782892 12.733046 12.733046 0 0 1-3.328-12.427816l51.328-191.562831a12.731077 12.731077 0 0 1 9.099816-9.095876 12.738954 12.738954 0 0 1 12.427815 3.329969l140.232862 140.232861a12.735015 12.735015 0 0 1 3.329969 12.427816 12.736985 12.736985 0 0 1-9.097846 9.097846l-191.562831 51.329969a13.036308 13.036308 0 0 1-3.387077 0.450954z m51.416615-207.466339c-0.344615 0-0.630154 0.057108-0.813292 0.106339a2.9696 2.9696 0 0 0-2.134646 2.136615l-51.328 191.562831a2.963692 2.963692 0 0 0 0.779815 2.914462 2.973538 2.973538 0 0 0 2.9184 0.781784l191.558893-51.329969a2.967631 2.967631 0 0 0 2.136615-2.136615 2.9696 2.9696 0 0 0-0.779815-2.914462l-140.234831-140.232861a2.900677 2.900677 0 0 0-2.103139-0.888124z" fill="#00AC9A" p-id="8654"></path><path d="M834.079508 957.262769H189.922462c-11.886277 0-21.5552-9.668923-21.5552-21.553231V462.005169l-17.366647 20.491816c-14.830277 17.500554-36.665108 22.592985-49.709292 11.600738l-76.727138-64.649846c-5.200738-4.383508-8.264862-10.6752-8.85957-18.199631-0.862523-10.929231 3.782892-23.425969 12.429785-33.427692 1.502523-1.687631 142.322215-159.9744 185.997785-214.756431 46.499446-58.324677 109.294277-92.528246 176.81723-96.313108l5.592616-0.313107 2.682092 4.917169c22.547692 41.3184 65.760492 66.989292 112.777846 66.993231 47.015385-0.003938 90.228185-25.672862 112.779816-66.993231l2.682092-4.917169 5.592615 0.313107c67.522954 3.784862 130.317785 37.988431 176.817231 96.313108 43.675569 54.782031 184.493292 213.066831 185.911139 214.659939 8.731569 10.098215 13.376985 22.594954 12.512492 33.522215-0.594708 7.524431-3.658831 13.818092-8.859569 18.199631l-76.727139 64.649846c-13.046154 10.996185-34.884923 5.897846-49.709292-11.600739l-17.366646-20.491815v473.704369c-0.001969 11.886277-9.670892 21.5552-21.5552 21.5552zM186.090338 413.678277v522.031261c0 2.077538 1.754585 3.830154 3.832124 3.830154h644.157046c2.077538 0 3.830154-1.754585 3.830154-3.830154V413.678277l48.610461 57.361723c8.593723 10.141538 20.166892 13.3888 24.770954 9.503508l76.727138-64.649846c1.888492-1.591138 2.461538-4.164923 2.6112-6.04357 0.490338-6.208985-2.640738-14.042585-8.168369-20.436677-1.337108-1.500554-142.475815-160.145723-186.446769-215.297969-42.050954-52.747815-98.166154-84.302769-158.521108-89.290831-26.336492 44.087138-73.897354 71.238892-125.483323 71.24677h-0.017723a146.148431 146.148431 0 0 1-125.483323-71.24677c-60.354954 4.988062-116.468185 36.543015-158.521108 89.290831-43.972923 55.152246-185.109662 213.797415-186.531446 215.394462-5.444923 6.2976-8.574031 14.1312-8.083692 20.340184 0.147692 1.878646 0.722708 4.4544 2.6112 6.04357l76.727138 64.649846c4.606031 3.883323 16.175262 0.64 24.768985-9.503508l48.610461-57.361723z" fill="#00AC9A" p-id="8655"></path></svg>