<?xml version="1.0" standalone="no"?><!DOCTYPE svg PUBLIC "-//W3C//DTD SVG 1.1//EN" "http://www.w3.org/Graphics/SVG/1.1/DTD/svg11.dtd"><svg t="1723022387077" class="icon" viewBox="0 0 1296 1024" version="1.1" xmlns="http://www.w3.org/2000/svg" p-id="4683" xmlns:xlink="http://www.w3.org/1999/xlink" width="253.125" height="200"><path d="M907.434667 894.145422v2.753422c0 14.529422-11.889778 26.407822-26.407823 26.407823H142.461156c-14.518044 0-26.407822-11.8784-26.407823-26.407823v-2.753422c0-14.529422 11.8784-26.407822 26.407823-26.407822h738.554311c14.529422 0 26.4192 11.8784 26.4192 26.407822zM416.529067 126.179556v368.514844h-0.2048c-4.323556 81.669689-73.181867 144.884622-154.9312 142.210844-81.737956-2.673778-146.340978-70.235022-145.316978-152.007111 1.001244-81.783467 67.242667-147.729067 149.026133-148.366222 0.1024 0 0.193422-0.022756 0.3072-0.022755 0.056889 0 0.113778 0.011378 0.170667 0.011377 0.238933 0 0.466489-0.011378 0.705422-0.011377v0.045511c14.279111 0.466489 25.611378 12.1856 25.611378 26.464711 0 14.290489-11.332267 26.0096-25.611378 26.476089v0.045511c-53.691733 0-97.223111 43.531378-97.223111 97.211733 0 53.691733 43.531378 97.223111 97.223111 97.223111 53.680356 0 97.211733-43.531378 97.211733-97.223111v-360.561778c0-14.6432 11.867022-26.510222 26.510223-26.510222 14.6432-0.011378 26.5216 11.855644 26.5216 26.498845z m224.585955 158.196622h-0.113778V126.179556c0-14.6432 11.8784-26.510222 26.510223-26.510223 14.6432 0 26.510222 11.867022 26.510222 26.510223v152.894577c0 43.9296 35.612444 79.542044 79.542044 79.542045s79.542044-35.612444 79.542045-79.542045c0-43.918222-35.601067-79.542044-79.542045-79.542044v-0.034133c-14.279111-0.466489-25.611378-12.174222-25.611377-26.476089 0-14.290489 11.332267-25.998222 25.611377-26.476089v-0.045511c0.238933 0 0.477867 0.011378 0.705423 0.011377 0.056889 0 0.113778-0.011378 0.170666-0.011377 0.1024 0 0.193422 0.022756 0.3072 0.022755 72.362667 0.648533 130.844444 59.209956 131.3792 131.572622 0.534756 72.362667-57.059556 131.777422-129.410844 133.506845-72.362667 1.706667-132.7104-54.920533-135.600356-127.226311zM502.249244 607.823644h-0.011377V126.179556c0-14.6432 11.867022-26.510222 26.510222-26.510223 14.6432 0 26.510222 11.867022 26.510222 26.510223v479.869155h0.011378c0 0.3072-0.011378 0.591644-0.011378 0.887467 0 66.139022 52.041956 120.581689 118.112711 123.585422 66.070756 2.992356 122.823111-46.512356 128.8192-112.389689 5.996089-65.877333-40.880356-124.814222-106.427733-133.779911v-0.3072c-14.279111-0.466489-25.611378-12.174222-25.611378-26.476089 0-14.290489 11.343644-26.0096 25.611378-26.476089v-0.125155c0.284444 0.022756 0.546133 0.056889 0.830578 0.079644h0.045511c2.025244 0.011378 4.050489 0.250311 6.030222 0.7168 86.402844 11.582578 153.053867 85.572267 153.053867 175.149511 0 97.609956-79.132444 176.7424-176.753778 176.7424-97.291378 0.022756-176.2304-78.631822-176.719645-175.832178z" fill="#333333" p-id="4684"></path><path d="M416.529067 126.179556v368.514844h-0.2048c-4.323556 81.669689-73.181867 144.884622-154.9312 142.210844-81.737956-2.673778-146.340978-70.235022-145.316978-152.007111 1.001244-81.783467 67.242667-147.729067 149.026133-148.366222 0.1024 0 0.193422-0.022756 0.3072-0.022755 0.056889 0 0.113778 0.011378 0.170667 0.011377 0.238933 0 0.466489-0.011378 0.705422-0.011377v0.045511c14.279111 0.466489 25.611378 12.1856 25.611378 26.464711 0 14.290489-11.332267 26.0096-25.611378 26.476089v0.045511c-53.691733 0-97.223111 43.531378-97.223111 97.211733 0 53.691733 43.531378 97.223111 97.223111 97.223111 53.680356 0 97.211733-43.531378 97.211733-97.223111v-360.561778c0-14.6432 11.867022-26.510222 26.510223-26.510222 14.6432-0.011378 26.5216 11.855644 26.5216 26.498845z m224.585955 158.196622h-0.113778V126.179556c0-14.6432 11.8784-26.510222 26.510223-26.510223 14.6432 0 26.510222 11.867022 26.510222 26.510223v152.894577c0 43.9296 35.612444 79.542044 79.542044 79.542045s79.542044-35.612444 79.542045-79.542045c0-43.918222-35.601067-79.542044-79.542045-79.542044v-0.034133c-14.279111-0.466489-25.611378-12.174222-25.611377-26.476089 0-14.290489 11.332267-25.998222 25.611377-26.476089v-0.045511c0.238933 0 0.477867 0.011378 0.705423 0.011377 0.056889 0 0.113778-0.011378 0.170666-0.011377 0.1024 0 0.193422 0.022756 0.3072 0.022755 72.362667 0.648533 130.844444 59.209956 131.3792 131.572622 0.534756 72.362667-57.059556 131.777422-129.410844 133.506845-72.362667 1.706667-132.7104-54.920533-135.600356-127.226311zM502.249244 607.823644h-0.011377V126.179556c0-14.6432 11.867022-26.510222 26.510222-26.510223 14.6432 0 26.510222 11.867022 26.510222 26.510223v479.869155h0.011378c0 0.3072-0.011378 0.591644-0.011378 0.887467 0 66.139022 52.041956 120.581689 118.112711 123.585422 66.070756 2.992356 122.823111-46.512356 128.8192-112.389689 5.996089-65.877333-40.880356-124.814222-106.427733-133.779911v-0.3072c-14.279111-0.466489-25.611378-12.174222-25.611378-26.476089 0-14.290489 11.343644-26.0096 25.611378-26.476089v-0.125155c0.284444 0.022756 0.546133 0.056889 0.830578 0.079644h0.045511c2.025244 0.011378 4.050489 0.250311 6.030222 0.7168 86.402844 11.582578 153.053867 85.572267 153.053867 175.149511 0 97.609956-79.132444 176.7424-176.753778 176.7424-97.291378 0.022756-176.2304-78.631822-176.719645-175.832178z" fill="#FFB517" p-id="4685"></path></svg>