<?xml version="1.0" standalone="no"?><!DOCTYPE svg PUBLIC "-//W3C//DTD SVG 1.1//EN" "http://www.w3.org/Graphics/SVG/1.1/DTD/svg11.dtd"><svg t="1723086805198" class="icon" viewBox="0 0 1024 1024" version="1.1" xmlns="http://www.w3.org/2000/svg" p-id="4559" xmlns:xlink="http://www.w3.org/1999/xlink" width="200" height="200"><path d="M1000.00512 206.016l-160-128A64.096 64.096 0 0 0 800.00512 64H224.00512a64 64 0 0 0-40 14.016l-160 128a64.032 64.032 0 0 0-20.704 70.24l64 192A64 64 0 0 0 160.00512 503.424V896a64 64 0 0 0 64 64h576a64 64 0 0 0 64-64V503.424a64.064 64.064 0 0 0 52.736 5.12 63.936 63.936 0 0 0 39.936-40.288l64-192a64 64 0 0 0-20.672-70.24zM632.13312 128C614.43712 165.152 567.55712 192 512.00512 192c-55.552 0-102.464-26.848-120.128-64h240.256zM896.00512 448l-96-64v512H224.00512V384l-96 64-64-192 160-128h133.664c17.824 55.104 79.872 96 154.336 96 74.432 0 136.512-40.896 154.304-96H800.00512l160 128-64 192z" fill="#333333" p-id="4560"></path></svg>