<?xml version="1.0" standalone="no"?><!DOCTYPE svg PUBLIC "-//W3C//DTD SVG 1.1//EN" "http://www.w3.org/Graphics/SVG/1.1/DTD/svg11.dtd"><svg t="1723022026866" class="icon" viewBox="0 0 1024 1024" version="1.1" xmlns="http://www.w3.org/2000/svg" p-id="1518" xmlns:xlink="http://www.w3.org/1999/xlink" width="200" height="200"><path d="M276.426105 709.133474l-57.6 57.6a27.176421 27.176421 0 0 0 38.440421 38.440421l57.6-57.6a27.176421 27.176421 0 1 0-38.440421-38.440421zM259.907368 298.684632a27.405474 27.405474 0 1 0 38.76379-38.76379l-58.152421-58.152421a27.405474 27.405474 0 0 0-38.76379 38.76379l58.152421 58.152421z m-76.975157 185.936842H100.661895a27.418947 27.418947 0 0 0 0 54.837894h82.270316a27.418947 27.418947 0 0 0 0-54.837894zM512 210.405053a27.351579 27.351579 0 0 0 27.418947-27.418948V100.715789a27.418947 27.418947 0 0 0-54.837894 0v82.270316a27.418947 27.418947 0 0 0 27.405473 27.378527z m263.868632 76.207158l57.6-57.6a27.176421 27.176421 0 1 0-38.440421-38.440422l-57.6 57.6a27.176421 27.176421 0 0 0 38.440421 38.440422z m147.456 198.063157h-82.270316a27.418947 27.418947 0 0 0 0 54.837895h82.270316a27.418947 27.418947 0 1 0 0-54.837895zM764.079158 725.382737a27.405474 27.405474 0 0 0-38.76379 38.763789l58.152421 58.152421a27.405474 27.405474 0 1 0 38.76379-38.763789zM512 265.162105a247.013053 247.013053 0 1 0 247.053474 246.959158 246.986105 246.986105 0 0 0-247.066948-247.026526z m0 548.540632a27.351579 27.351579 0 0 0-27.418947 27.418947v82.270316a27.418947 27.418947 0 0 0 54.837894 0v-82.270316a27.418947 27.418947 0 0 0-27.432421-27.472842z" fill="#FFCD00" p-id="1519"></path></svg>