<?xml version="1.0" standalone="no"?><!DOCTYPE svg PUBLIC "-//W3C//DTD SVG 1.1//EN" "http://www.w3.org/Graphics/SVG/1.1/DTD/svg11.dtd"><svg t="1723022465042" class="icon" viewBox="0 0 1024 1024" version="1.1" xmlns="http://www.w3.org/2000/svg" p-id="7367" xmlns:xlink="http://www.w3.org/1999/xlink" width="200" height="200"><path d="M75.2 528.8c0 236.8 192 428.8 428.8 428.8s428.8-192 428.8-428.8-192-428.8-428.8-428.8c-236.8 0.8-428.8 192-428.8 428.8z m0 0" fill="#D45C21" p-id="7368"></path><path d="M503.2 356.8c-124 0-232 68.8-292 172 60 103.2 168 172 292 172S736 632 796 528.8C736 426.4 627.2 356.8 503.2 356.8z m1.6 291.2c-63.2 0-114.4-53.6-114.4-119.2s51.2-119.2 114.4-119.2 114.4 53.6 114.4 119.2S568 648 504.8 648z m0-40c42.4 0 76-35.2 76-79.2s-34.4-79.2-76-79.2c-42.4 0-76 35.2-76 79.2s33.6 79.2 76 79.2z m0 0" fill="#FFFFFF" p-id="7369"></path></svg>